<?xml version="1.0" encoding="iso-8859-1"?>
<!-- Uploaded to: SVG Repo, www.svgrepo.com, Generator: SVG Repo Mixer Tools -->
<svg fill="#000000" height="800px" width="800px" version="1.1" id="Layer_1" xmlns="http://www.w3.org/2000/svg" xmlns:xlink="http://www.w3.org/1999/xlink" 
	 viewBox="0 0 512.008 512.008" xml:space="preserve">
<g>
	<g>
		<g>
			<path d="M341.325,277.337h64c11.782,0,21.333-9.551,21.333-21.333V149.337c0-11.782-9.551-21.333-21.333-21.333h-64
				c-11.782,0-21.333,9.551-21.333,21.333v106.667C319.991,267.786,329.543,277.337,341.325,277.337z M362.658,170.671h21.333v64
				h-21.333V170.671z"/>
			<path d="M490.658,0.004H255.991c-14.561,0-24.843,14.266-20.239,28.08L256,88.825v124.512h-64.009v-81.871L212.23,70.75
				c4.605-13.814-5.677-28.08-20.239-28.08H85.325c-14.561,0-24.843,14.266-20.239,28.08l20.239,60.716v81.871h-0.311
				C38.054,213.337,0,251.409,0,298.372v64.597c0,40.49,28.297,74.348,66.191,82.917c8.719,37.871,42.614,66.117,83.134,66.117
				c42.443,0,77.63-30.985,84.213-71.568l48.283-4.389c13.19,43.938,53.94,75.957,102.171,75.957
				c58.646,0,106.235-47.338,106.657-105.884c0.007-0.26,0.018-0.518,0.018-0.783V88.773l20.23-60.69
				C515.501,14.269,505.219,0.004,490.658,0.004z M461.06,42.671l-7.111,21.333H292.701l-7.111-21.333H461.06z M162.393,85.337
				l-7.111,21.333h-33.248l-7.111-21.333H162.393z M127.991,149.337h21.333v64h-21.333V149.337z M42.667,362.969v-64.597
				c0-23.403,18.956-42.368,42.347-42.368h21.645h64h106.675c11.782,0,21.333-9.551,21.333-21.333v-128H448v213.327
				c-0.104-0.078-0.212-0.15-0.315-0.227c-0.832-0.621-1.677-1.226-2.528-1.823c-0.351-0.246-0.704-0.491-1.058-0.733
				c-0.895-0.611-1.797-1.213-2.711-1.798c-0.305-0.195-0.615-0.384-0.923-0.576c-0.758-0.474-1.522-0.938-2.292-1.393
				c-0.314-0.186-0.626-0.374-0.942-0.557c-0.956-0.552-1.922-1.086-2.896-1.608c-0.35-0.188-0.701-0.372-1.053-0.556
				c-0.975-0.509-1.956-1.008-2.948-1.488c-0.259-0.125-0.521-0.245-0.781-0.368c-0.892-0.422-1.79-0.83-2.695-1.228
				c-0.33-0.145-0.659-0.292-0.991-0.433c-1.046-0.447-2.1-0.877-3.162-1.291c-0.326-0.127-0.655-0.25-0.983-0.374
				c-0.977-0.37-1.961-0.727-2.951-1.069c-0.207-0.071-0.412-0.147-0.62-0.217c-1.111-0.375-2.232-0.726-3.359-1.066
				c-0.33-0.099-0.66-0.199-0.991-0.295c-1.136-0.33-2.278-0.644-3.429-0.937c-0.275-0.07-0.553-0.134-0.829-0.202
				c-1.039-0.255-2.084-0.496-3.135-0.721c-0.241-0.052-0.48-0.107-0.722-0.157c-1.194-0.247-2.396-0.469-3.604-0.675
				c-0.314-0.054-0.628-0.105-0.943-0.156c-1.228-0.199-2.462-0.382-3.704-0.538c-0.178-0.022-0.357-0.04-0.536-0.061
				c-1.155-0.139-2.316-0.258-3.482-0.36c-0.26-0.023-0.519-0.048-0.78-0.069c-1.263-0.101-2.533-0.179-3.808-0.236
				c-0.277-0.012-0.555-0.021-0.832-0.032c-1.323-0.049-2.649-0.082-3.984-0.082c-0.005,0-0.009,0-0.014,0c-0.001,0-0.003,0-0.004,0
				s-0.003,0-0.004,0c-15.523,0-30.271,3.32-43.576,9.283c-0.106,0.047-0.213,0.092-0.318,0.139
				c-0.217,0.098-0.431,0.203-0.647,0.302c-9.201,4.234-17.698,9.734-25.261,16.286c-19.788,17.141-33.198,41.443-36.213,68.873
				l-48.282,4.389c-4.897-13.694-13.197-25.762-23.877-35.205c-6.519-5.765-13.924-10.542-21.988-14.113
				c-0.431-0.191-0.853-0.398-1.288-0.582c-0.047-0.02-0.096-0.037-0.143-0.056c-10.17-4.28-21.341-6.649-33.065-6.649
				c-0.002,0-0.003,0-0.005,0c-0.001,0-0.003,0-0.004,0c-0.013,0-0.025,0.001-0.038,0.001c-1.337,0.001-2.666,0.039-3.988,0.101
				c-0.441,0.021-0.879,0.054-1.319,0.082c-0.9,0.056-1.798,0.121-2.691,0.205c-0.499,0.047-0.997,0.099-1.494,0.155
				c-0.847,0.094-1.69,0.202-2.529,0.321c-0.484,0.068-0.968,0.134-1.449,0.21c-0.941,0.15-1.875,0.321-2.806,0.501
				c-0.354,0.069-0.712,0.126-1.064,0.199c-1.243,0.257-2.476,0.543-3.699,0.854c-0.417,0.106-0.828,0.227-1.243,0.34
				c-0.83,0.224-1.657,0.455-2.476,0.703c-0.503,0.152-1,0.314-1.499,0.476c-0.731,0.237-1.457,0.482-2.179,0.737
				c-0.507,0.18-1.013,0.36-1.516,0.549c-0.733,0.275-1.458,0.565-2.182,0.86c-0.461,0.188-0.924,0.368-1.381,0.564
				c-1.07,0.458-2.13,0.936-3.178,1.436c-0.407,0.195-0.806,0.403-1.21,0.604c-0.766,0.381-1.529,0.766-2.282,1.169
				c-0.488,0.262-0.969,0.535-1.451,0.806c-0.616,0.345-1.228,0.695-1.835,1.055c-0.499,0.296-0.994,0.597-1.486,0.904
				c-0.586,0.364-1.164,0.738-1.74,1.115c-0.479,0.314-0.959,0.625-1.43,0.949c-0.626,0.429-1.24,0.873-1.854,1.318
				c-0.517,0.375-1.034,0.748-1.542,1.134c-0.813,0.617-1.617,1.245-2.406,1.891c-0.448,0.366-0.884,0.747-1.325,1.122
				c-0.506,0.431-1.012,0.863-1.508,1.306c-0.458,0.409-0.908,0.825-1.357,1.243c-0.464,0.433-0.924,0.871-1.378,1.314
				c-0.444,0.432-0.885,0.865-1.319,1.307c-0.452,0.46-0.893,0.93-1.335,1.4c-0.412,0.438-0.829,0.872-1.232,1.319
				c-0.657,0.73-1.297,1.475-1.929,2.227c-0.49,0.583-0.966,1.178-1.441,1.775c-0.399,0.501-0.8,1.001-1.188,1.512
				c-0.388,0.511-0.764,1.03-1.14,1.55c-0.354,0.488-0.705,0.978-1.048,1.474c-0.371,0.535-0.737,1.074-1.095,1.617
				c-0.33,0.501-0.652,1.008-0.972,1.516c-0.347,0.55-0.695,1.098-1.03,1.657c-0.323,0.54-0.631,1.091-0.942,1.639
				c-0.551,0.968-1.082,1.947-1.596,2.939c-0.296,0.571-0.596,1.139-0.879,1.717c-0.291,0.595-0.565,1.199-0.843,1.802
				c-0.248,0.537-0.495,1.075-0.732,1.618c-0.269,0.617-0.528,1.239-0.783,1.864c-0.221,0.544-0.436,1.09-0.646,1.64
				c-0.242,0.632-0.484,1.265-0.711,1.904c-0.2,0.561-0.385,1.128-0.573,1.694c-0.213,0.639-0.433,1.274-0.63,1.92
				c-0.001,0.003-0.002,0.006-0.003,0.009C52.954,395.042,42.667,380.21,42.667,362.969z M149.325,469.337
				c-23.529,0-42.603-19.039-42.664-42.554c0-0.038,0.006-0.075,0.006-0.113c0-23.566,19.097-42.664,42.662-42.667
				c6.361,0.001,12.391,1.403,17.813,3.898c0.227,0.105,0.459,0.201,0.684,0.309c0.072,0.035,0.142,0.074,0.213,0.109
				c3.027,1.48,5.856,3.303,8.429,5.427c2.929,2.417,5.52,5.225,7.715,8.332l-36.79,3.345
				c-11.734,1.067-20.381,11.443-19.314,23.177c1.067,11.734,11.443,20.381,23.177,19.314l36.799-3.345
				C181.288,459.192,166.497,469.337,149.325,469.337z M383.991,469.337c-25.807,0-48.033-15.287-58.157-37.292l60.089-5.463
				c11.734-1.067,20.381-11.443,19.314-23.177c-1.067-11.734-11.443-20.381-23.177-19.314l-60.095,5.463
				c3.392-13.38,10.993-25.081,21.319-33.603c3.728-3.076,7.818-5.726,12.183-7.904c0.262-0.131,0.517-0.273,0.781-0.4
				c0.234-0.113,0.475-0.211,0.71-0.321c8.214-3.835,17.372-5.989,27.038-5.99c35.341,0.002,63.996,28.658,63.996,64
				C447.991,440.681,419.335,469.337,383.991,469.337z"/>
		</g>
	</g>
</g>
</svg>